<?xml version="1.0" standalone="no"?><svg xmlns="http://www.w3.org/2000/svg" viewBox="0 0 1440 320"><path fill="#f3f4f5" fill-opacity="1" d="M0,32L26.7,69.3C53.3,107,107,181,160,224C213.3,267,267,277,320,250.7C373.3,224,427,160,480,149.3C533.3,139,587,181,640,208C693.3,235,747,245,800,218.7C853.3,192,907,128,960,122.7C1013.3,117,1067,171,1120,208C1173.3,245,1227,267,1280,234.7C1333.3,203,1387,117,1413,74.7L1440,32L1440,320L1413.3,320C1386.7,320,1333,320,1280,320C1226.7,320,1173,320,1120,320C1066.7,320,1013,320,960,320C906.7,320,853,320,800,320C746.7,320,693,320,640,320C586.7,320,533,320,480,320C426.7,320,373,320,320,320C266.7,320,213,320,160,320C106.7,320,53,320,27,320L0,320Z"></path></svg>